Coordinates
version=1
nRows=10
nColumns=33
inDegrees=yes

Units are S.I. units (second, meters, Newtons, ...)
Angles are in degrees.

endheader
time	ground_thorax_rot_x	ground_thorax_rot_y	ground_thorax_rot_z	ground_thorax_tx	ground_thorax_ty	ground_thorax_tz	clav_prot_r	clav_elev_r	scapula_abduction_r	scapula_elevation_r	scapula_upward_rot_r	scapula_winging_r	shoulder_elv_r	plane_of_elev_r	axial_rot_r	elbow_flexion_r	pro_sup_r	wrist_flex_r	wrist_dev_r	clav_prot_l	clav_elev_l	scapula_abduction_l	scapula_elevation_l	scapula_upward_rot_l	scapula_winging_l	shoulder_elv_l	plane_of_elev_l	axial_rot_l	elbow_flexion_l	pro_sup_l	wrist_flex_l	wrist_dev_l
      5.76000000	    -19.38133701	    -36.04810737	     57.65486490	    -65.51865990	    776.10962569	      9.43653138	      8.95451018	    -45.00000000	     36.94249631	    -45.00000000	    -45.00000000	   3141.76121865	  -3716.54774859	    152.03472770	   -102.17191763	   1808.69047662	     29.48085829	     16.88184055	     10.83166756	     13.28726411	     37.42328934	    -29.72129838	    -45.00000000	    -45.00000000	     78.64257541	     67.74144714	     20.49668234	    -52.46480122	   1088.21255108	     29.99289677	      8.11005321	    -19.06950254
      5.77000000	    -18.95650854	    -36.23470848	     58.21467048	    -62.49599763	    776.32112928	      9.60575143	      9.12581969	    -45.00000000	     37.00739886	    -45.00000000	    -45.00000000	   3141.75543876	  -3716.74851382	    152.17602207	   -102.07580432	   1808.50062355	     30.13467211	     16.83442468	     10.89824452	     13.07005488	     37.30834614	    -29.52583490	    -45.00000000	    -45.00000000	     78.41179412	     67.65278951	     20.40789962	    -52.49233687	   1088.11896291	     30.78456188	      8.03513715	    -19.08081493
      5.78000000	    -18.19651428	    -36.36847565	     59.21113023	    -59.78395800	    776.63672714	      9.77652680	      9.33788395	    -45.00000000	     37.28664477	    -45.00000000	    -45.00000000	   3141.56975529	  -3716.77983510	    152.41237842	   -102.21255681	   1808.32028305	     30.56721926	     16.78385340	     11.02857177	     12.70520370	     37.06433344	    -29.31135080	    -45.00000000	    -45.00000000	     77.93830191	     67.55056278	     19.99087294	    -52.23797562	   1088.12382771	     31.33199202	      7.95230825	    -19.10401511
      5.79000000	    -18.11745398	    -36.54484548	     59.30720757	    -57.37548339	    777.02416444	      9.94874301	      9.07341146	    -45.00000000	     37.08506795	    -45.00000000	    -45.00000000	   3141.83277471	  -3716.88649561	    152.50642146	   -102.50534730	   1808.22597322	     30.89936406	     16.73798203	     11.03396266	     13.01284421	     37.19298338	    -29.23866815	    -45.00000000	    -45.00000000	     77.84885906	     67.46838985	     20.06987324	    -52.12112324	   1087.96113963	     31.86387831	      7.79583157	    -19.05699386
      5.80000000	    -17.90564574	    -36.65164118	     59.53548048	    -55.24953084	    777.45260170	     10.12365155	      9.07142783	    -45.00000000	     37.07209943	    -45.00000000	    -45.00000000	   3141.92015482	  -3716.98307832	    152.52827292	   -102.89066356	   1808.12966066	     31.12661130	     16.71105730	     11.10730729	     12.96517097	     37.17363483	    -29.11908099	    -45.00000000	    -45.00000000	     77.68451712	     67.36283602	     20.12738368	    -51.72581961	   1087.91839776	     32.29716868	      7.73166489	    -19.06309706
      5.81000000	    -17.65102845	    -36.74047743	     59.82642281	    -53.37667388	    777.89643376	     10.30067376	      8.96747747	    -45.00000000	     37.07811830	    -45.00000000	    -45.00000000	   3142.02788789	  -3716.98558173	    152.62706906	   -103.38906940	   1808.13158159	     31.19090068	     16.69803806	     11.16267858	     13.14051564	     37.16029373	    -28.90512413	    -45.00000000	    -45.00000000	     77.53312485	     67.24233420	     20.22122205	    -51.28315623	   1087.98427031	     32.58739695	      7.59778061	    -19.06056121
      5.82000000	    -17.39568236	    -36.91787610	     60.12910208	    -51.73114171	    778.33469344	     10.47919399	      8.98768516	    -45.00000000	     37.18925843	    -45.00000000	    -45.00000000	   3142.09599880	  -3717.11274207	    152.69518948	   -103.82060790	   1808.09461262	     31.14371876	     16.69202095	     11.24697201	     13.11349922	     37.09796454	    -28.48961207	    -45.00000000	    -45.00000000	     77.41507888	     67.34402891	     20.48236295	    -50.82092676	   1087.92680026	     32.78437156	      7.51877813	    -19.03857882
      5.83000000	    -17.57985501	    -36.83730125	     60.07094585	    -50.27484638	    778.75811498	     10.65650409	      8.99672029	    -45.00000000	     36.96334933	    -45.00000000	    -45.00000000	   3142.12345726	  -3717.25012560	    152.65756612	   -104.18722561	   1808.04047869	     30.99062319	     16.67534926	     11.31718254	     13.12220995	     37.13322208	    -29.01071118	    -45.00000000	    -45.00000000	     77.37640486	     67.04071306	     20.36605050	    -50.47883484	   1087.84071875	     32.95604904	      7.55398522	    -19.06682575
      5.84000000	    -17.65051400	    -36.84278660	     59.98927279	    -48.97593388	    779.16301044	     10.82930947	      8.69552862	    -45.00000000	     36.85322178	    -45.00000000	    -45.00000000	   3142.33440536	  -3717.30115658	    152.67215550	   -104.62710438	   1808.04465160	     30.70833768	     16.67093105	     11.35153202	     13.44811061	     37.20383139	    -29.01427550	    -45.00000000	    -45.00000000	     77.33734480	     66.87511203	     20.59427861	    -50.08677479	   1087.74325885	     33.02519686	      7.47596363	    -19.03063675
      5.85000000	    -17.64500254	    -36.86409519	     60.09155156	    -47.80587665	    779.55327568	     10.99177240	      8.74050197	    -45.00000000	     36.80877289	    -45.00000000	    -45.00000000	   3142.31082249	  -3717.43414903	    152.63731697	   -104.94169245	   1808.06344058	     30.35443511	     16.67275697	     11.42036778	     13.27799383	     37.17194988	    -29.12043175	    -45.00000000	    -45.00000000	     77.15457839	     66.82671850	     20.47265217	    -49.62857278	   1087.71791507	     33.00719809	      7.55112623	    -19.08536505
